<?xml version="1.0" encoding="UTF-8" standalone="no"?>
<svg
   width="29"
   height="19"
   viewBox="0 0 29 19"
   fill="none"
   version="1.1"
   id="svg10"
   sodipodi:docname="explore.svg"
   xmlns:inkscape="http://www.inkscape.org/namespaces/inkscape"
   xmlns:sodipodi="http://sodipodi.sourceforge.net/DTD/sodipodi-0.dtd"
   xmlns="http://www.w3.org/2000/svg"
   xmlns:svg="http://www.w3.org/2000/svg">
  <defs
     id="defs14" />
  <sodipodi:namedview
     id="namedview12"
     pagecolor="#ffffff"
     bordercolor="#666666"
     borderopacity="1.0"
     inkscape:pageshadow="2"
     inkscape:pageopacity="0.0"
     inkscape:pagecheckerboard="0" />
  <path
     d="M18.5648 14.2375C19.3528 14.2375 20.133 14.0824 20.8609 13.7808C21.5889 13.4793 22.2503 13.0373 22.8075 12.4802C23.3646 11.923 23.8066 11.2616 24.1081 10.5336C24.4096 9.8057 24.5648 9.02548 24.5648 8.23755C24.5648 7.44962 24.4096 6.6694 24.1081 5.94145C23.8066 5.21349 23.3646 4.55206 22.8075 3.99491C22.2503 3.43776 21.5889 2.9958 20.8609 2.69427C20.133 2.39274 19.3528 2.23755 18.5648 2.23755C16.9735 2.23755 15.4474 2.86969 14.3222 3.99491C13.197 5.12013 12.5648 6.64625 12.5648 8.23755C12.5648 9.82885 13.197 11.355 14.3222 12.4802C15.4474 13.6054 16.9735 14.2375 18.5648 14.2375ZM24.8848 13.1435L28.4648 16.7235C28.5603 16.8159 28.6364 16.9263 28.6887 17.0483C28.741 17.1703 28.7685 17.3016 28.7696 17.4344C28.7706 17.5671 28.7452 17.6988 28.6949 17.8217C28.6445 17.9445 28.5702 18.0561 28.4762 18.1499C28.3823 18.2438 28.2705 18.3179 28.1476 18.3681C28.0247 18.4183 27.893 18.4435 27.7602 18.4423C27.6274 18.441 27.4962 18.4134 27.3743 18.3609C27.2523 18.3084 27.142 18.2321 27.0498 18.1365L23.4698 14.5565C21.8623 15.8044 19.8396 16.3927 17.8136 16.2017C15.7875 16.0108 13.9104 15.0549 12.5644 13.5286C11.2183 12.0024 10.5045 10.0205 10.5683 7.98647C10.632 5.95245 11.4685 4.01917 12.9075 2.58019C14.3465 1.14122 16.2797 0.304715 18.3138 0.240974C20.3478 0.177233 22.3296 0.891045 23.8559 2.2371C25.3821 3.58315 26.3381 5.46026 26.529 7.4863C26.72 9.51234 26.1317 11.535 24.8838 13.1425L24.8848 13.1435Z"
     fill="#181725"
     id="path2" />
  <rect
     x="0.420288"
     y="0.237045"
     width="8.85499"
     height="2.39923"
     rx="1.19961"
     fill="#181725"
     id="rect4" />
  <rect
     x="0.420288"
     y="7.67523"
     width="6.46414"
     height="2.39923"
     rx="1.19961"
     fill="#181725"
     id="rect6" />
  <rect
     x="0.420288"
     y="15.1138"
     width="8.85499"
     height="2.39923"
     rx="1.19961"
     fill="#181725"
     id="rect8" />
</svg>
