<?xml version="1.0" encoding="UTF-8" standalone="no"?>
<svg
   width="25"
   height="24"
   viewBox="0 0 25 24"
   fill="none"
   version="1.1"
   id="svg11"
   sodipodi:docname="favourite.svg"
   xmlns:inkscape="http://www.inkscape.org/namespaces/inkscape"
   xmlns:sodipodi="http://sodipodi.sourceforge.net/DTD/sodipodi-0.dtd"
   xmlns="http://www.w3.org/2000/svg"
   xmlns:svg="http://www.w3.org/2000/svg">
  <sodipodi:namedview
     id="namedview13"
     pagecolor="#ffffff"
     bordercolor="#666666"
     borderopacity="1.0"
     inkscape:pageshadow="2"
     inkscape:pageopacity="0.0"
     inkscape:pagecheckerboard="0" />
  <g
     clip-path="url(#clip0_1_273)"
     id="g4">
    <path
       d="M4.97914 11.0097L12.8032 18.8338L20.6273 11.0097C21.3191 10.318 21.7077 9.37975 21.7077 8.40147C21.7077 7.42319 21.3191 6.48498 20.6273 5.79323C20.2848 5.45071 19.8782 5.17901 19.4307 4.99364C18.9831 4.80827 18.5035 4.71286 18.0191 4.71286C17.0408 4.71286 16.1026 5.10148 15.4109 5.79323L12.8032 8.40085L10.1956 5.79446C9.50211 5.11199 8.56702 4.73121 7.59403 4.73506C6.62105 4.7389 5.68899 5.12707 5.0009 5.815C4.31281 6.50293 3.92443 7.43489 3.92035 8.40787C3.91628 9.38086 4.29684 10.316 4.97914 11.0097ZM11.934 4.05359L12.8032 4.92279L13.6724 4.05359C14.2424 3.47867 14.9202 3.02197 15.6671 2.70973C16.414 2.39748 17.2152 2.23583 18.0247 2.23406C18.8342 2.23229 19.6361 2.39043 20.3843 2.6994C21.1326 3.00837 21.8124 3.46209 22.3848 4.03451C22.9573 4.60693 23.411 5.28677 23.7199 6.03501C24.0289 6.78325 24.1871 7.58514 24.1853 8.39466C24.1835 9.20418 24.0219 10.0054 23.7096 10.7523C23.3974 11.4991 22.9407 12.177 22.3658 12.7469L13.6737 21.4402C13.5595 21.5545 13.4239 21.6452 13.2747 21.7071C13.1254 21.7689 12.9654 21.8008 12.8039 21.8008C12.6423 21.8008 12.4823 21.7689 12.3331 21.7071C12.1838 21.6452 12.0482 21.5545 11.934 21.4402L3.24072 12.7481C2.65799 12.18 2.19385 11.5019 1.87523 10.7531C1.55661 10.0042 1.38986 9.19957 1.38465 8.38577C1.37943 7.57198 1.53586 6.76525 1.84486 6.01238C2.15385 5.25951 2.60926 4.57549 3.18467 4C3.76009 3.42451 4.44404 2.969 5.19687 2.6599C5.94969 2.3508 6.7564 2.19426 7.57019 2.19935C8.38399 2.20445 9.18867 2.37109 9.93756 2.6896C10.6865 3.00811 11.3646 3.47216 11.9328 4.05481L11.934 4.05359Z"
       fill="#181725"
       id="path2" />
  </g>
  <defs
     id="defs9">
    <clipPath
       id="clip0_1_273">
      <rect
         width="24"
         height="24"
         fill="white"
         transform="translate(0.284912)"
         id="rect6" />
    </clipPath>
  </defs>
</svg>
