<svg width="40" height="44" viewBox="0 0 40 44" fill="none" xmlns="http://www.w3.org/2000/svg">
<path d="M34.9181 22.3271C33.7082 23.6337 32.4177 24.8436 31.0466 26.0212C29.1269 27.6827 27.175 29.2958 25.1909 30.8444C23.0615 29.5378 21.5291 28.8764 21.271 29.2152C21.0451 29.5217 21.9324 30.6509 23.5294 32.1188C18.1738 36.1032 12.5117 39.6199 6.43015 42.5074C5.4784 42.9591 4.47826 43.2817 3.49425 43.6366C3.23615 43.7334 2.96192 43.7334 2.849 43.7495C1.30039 43.9269 0.832581 43.5075 0.897107 42.088C1.09068 37.668 2.46185 33.5222 3.8814 29.3926C4.26855 28.2634 4.67184 27.1342 5.09125 26.005C7.23672 27.3117 8.76919 27.9892 9.0273 27.6504C9.30153 27.2794 8.01102 25.7953 5.84942 23.9402C7.39803 19.9397 9.12408 16.0036 11.1566 12.2289C15.2217 15.2454 18.8351 17.2296 19.2384 16.6811C19.6417 16.1327 16.6574 13.2129 12.5439 10.1641L12.3665 10.035C13.0763 8.82517 13.8183 7.61532 14.6087 6.43774C15.5927 4.95366 16.8026 3.59862 17.9963 2.27586C19.5933 0.517541 21.6581 -0.0793181 23.9649 0.436884C31.3531 2.08228 36.4828 6.32482 38.9025 13.6C39.3865 15.0841 38.9509 16.5359 38.1927 17.8748C37.6765 18.7782 37.1119 19.6332 36.4828 20.4397C32.579 17.5845 29.1915 15.7455 28.8043 16.2617C28.4333 16.7779 31.1272 19.4396 34.9181 22.3271Z" fill="white"/>
</svg>
